<?xml version="1.0" encoding="utf-8"?>
<!-- Generator: Adobe Illustrator 16.0.0, SVG Export Plug-In . SVG Version: 6.00 Build 0)  -->
<!DOCTYPE svg PUBLIC "-//W3C//DTD SVG 1.1//EN" "http://www.w3.org/Graphics/SVG/1.1/DTD/svg11.dtd">
<svg version="1.1" id="Capa_1" xmlns="http://www.w3.org/2000/svg" xmlns:xlink="http://www.w3.org/1999/xlink" x="0px" y="0px"
	 width="630.739px" height="377.607px" viewBox="0 0 630.739 377.607" enable-background="new 0 0 630.739 377.607"
	 xml:space="preserve">
<g>
	<g>
		<path fill="#FFFFFF" d="M364.832,307.498H73.177c-9.479,0-17.191-7.713-17.191-17.191V110.559c0-9.478,7.712-17.188,17.191-17.188
			h291.655c9.477,0,17.186,7.71,17.186,17.188v179.747C382.018,299.785,374.309,307.498,364.832,307.498z M73.177,97.371
			c-7.274,0-13.191,5.916-13.191,13.188v179.747c0,7.273,5.917,13.191,13.191,13.191h291.655c7.271,0,13.186-5.918,13.186-13.191
			V110.559c0-7.272-5.916-13.188-13.186-13.188H73.177z"/>
		<rect x="57.986" y="278.806" fill="#FFFFFF" width="322.032" height="4"/>
		<path fill="#FFFFFF" d="M271.667,355.601H164.321c-0.913,0-1.711-0.618-1.938-1.503s0.175-1.811,0.976-2.25l16.179-8.878v-37.473
			h4v38.657c0,0.729-0.398,1.402-1.038,1.753l-10.376,5.693h92.537l-9.246-5.748c-0.587-0.365-0.944-1.007-0.944-1.698v-38.657h4
			v37.545l14.251,8.86c0.758,0.472,1.112,1.39,0.867,2.248S272.56,355.601,271.667,355.601z"/>
	</g>
	<g>
		<path fill="#FFFFFF" d="M249.524,272.755c-0.733,0-1.44-0.404-1.79-1.105l-5.057-10.113c-0.237-0.475-0.276-1.023-0.108-1.527
			s0.529-0.919,1.004-1.156l32.37-16.182c0.475-0.237,1.023-0.276,1.527-0.108c0.503,0.168,0.919,0.529,1.156,1.003l5.056,10.118
			c0.494,0.988,0.093,2.189-0.895,2.683l-32.371,16.177C250.13,272.688,249.825,272.755,249.524,272.755z M247.15,261.537
			l3.268,6.535l28.793-14.388l-3.268-6.54L247.15,261.537z"/>
		<path fill="#FFFFFF" d="M253.176,258.286c-0.398,0-0.8-0.119-1.15-0.365c-8.025-5.657-15.812-10.168-15.89-10.213
			c-0.56-0.324-0.929-0.897-0.991-1.541l-4.802-50.065c-0.079-0.823,0.357-1.61,1.097-1.98s1.631-0.247,2.242,0.311l37.168,33.883
			c0.478,0.435,0.715,1.075,0.638,1.716c-0.011,0.089-1.073,9.037-1.365,18.843c-0.033,1.104-0.958,1.971-2.059,1.939
			c-1.104-0.033-1.973-0.955-1.939-2.059c0.239-8.038,0.986-15.508,1.275-18.171l-32.58-29.701l4.209,43.885
			c2.304,1.367,8.729,5.25,15.301,9.883c0.903,0.637,1.119,1.884,0.482,2.787C254.423,257.991,253.804,258.286,253.176,258.286z"/>
		<path fill="#FFFFFF" d="M249.782,232.804c-0.733,0-1.44-0.405-1.79-1.106l-17.447-34.893c-0.494-0.988-0.093-2.189,0.895-2.684
			c0.988-0.494,2.189-0.094,2.684,0.895l17.446,34.893c0.494,0.988,0.094,2.189-0.894,2.684
			C250.388,232.736,250.083,232.804,249.782,232.804z"/>
		<path fill="#FFFFFF" d="M249.782,236.198c-2.055,0-3.903-1.141-4.826-2.978c-1.324-2.654-0.244-5.898,2.407-7.235
			c0.751-0.375,1.583-0.572,2.411-0.572c2.055,0,3.903,1.141,4.825,2.978c1.331,2.658,0.249,5.904-2.411,7.237
			C251.443,236.001,250.611,236.198,249.782,236.198z M249.774,229.414c-0.214,0-0.422,0.049-0.617,0.147
			c-0.683,0.345-0.966,1.185-0.625,1.87c0.333,0.662,1.186,0.96,1.865,0.621c0.688-0.345,0.969-1.183,0.626-1.867
			C250.786,229.709,250.307,229.414,249.774,229.414z"/>
	</g>
	<path fill="#FFFFFF" d="M182.114,197.923c-13.925,0-24.982-3.39-33.057-10.164c-16.125-13.527-14.036-35.3-13.938-36.221
		c0.115-1.099,1.103-1.903,2.198-1.779c1.098,0.115,1.894,1.098,1.78,2.196l0,0c-0.021,0.205-1.94,20.63,12.56,32.764
		c13.249,11.087,35.721,12.183,66.793,3.26c1.062-0.302,2.169,0.309,2.474,1.37c0.305,1.062-0.309,2.169-1.371,2.475
		C205.394,195.891,192.895,197.923,182.114,197.923z"/>
	<path fill="#FFFFFF" d="M143.779,152.899h-13.334c-1.104,0-2-0.896-2-2v-13.338c0-1.104,0.896-2,2-2h13.334c1.104,0,2,0.896,2,2
		v13.338C145.779,152.003,144.884,152.899,143.779,152.899z M132.445,148.899h9.334v-9.338h-9.334V148.899z"/>
	<path fill="#FFFFFF" d="M232.334,198.572h-13.332c-1.104,0-2-0.896-2-2v-13.34c0-1.104,0.896-2,2-2h13.332c1.104,0,2,0.896,2,2
		v13.34C234.334,197.677,233.438,198.572,232.334,198.572z M221.002,194.572h9.332v-9.34h-9.332V194.572z"/>
	<path fill="#FFFFFF" d="M523.768,355.601h-64.896c-1.104,0-2-0.895-2-2V288.25c0-1.104,0.896-2,2-2h64.896c1.104,0,2,0.896,2,2
		v65.352C525.768,354.707,524.873,355.601,523.768,355.601z M460.872,351.601h60.896V290.25h-60.896V351.601z"/>
	<path fill="#FFFFFF" d="M499.797,290.25c-0.097,0-0.194-0.007-0.292-0.021c-1.093-0.16-1.849-1.176-1.689-2.269l4.228-28.837
		l-10.161-1.487l-4.203,30.884c-0.148,1.094-1.158,1.859-2.251,1.713c-1.095-0.149-1.861-1.158-1.712-2.252l4.475-32.886
		c0.072-0.529,0.353-1.007,0.779-1.329s0.964-0.458,1.492-0.381l14.139,2.069c0.525,0.077,0.998,0.359,1.314,0.785
		c0.317,0.426,0.452,0.959,0.375,1.484l-4.518,30.816C501.627,289.535,500.773,290.25,499.797,290.25z"/>
	<path fill="#FFFFFF" d="M502.082,259.108c-0.097,0-0.194-0.007-0.291-0.021l-9.674-1.419c-1.093-0.161-1.849-1.176-1.688-2.269
		l1.618-11.038c0.077-0.525,0.359-0.998,0.784-1.314c0.426-0.316,0.959-0.452,1.484-0.375l9.674,1.418
		c1.093,0.16,1.849,1.176,1.689,2.269l-1.618,11.039c-0.077,0.525-0.359,0.998-0.785,1.314
		C502.929,258.971,502.509,259.108,502.082,259.108z M494.676,254l5.716,0.838l1.038-7.081l-5.717-0.838L494.676,254z"/>
	<path fill="#FFFFFF" d="M498.871,247.357c-0.096,0-0.194-0.007-0.292-0.021c-1.093-0.16-1.849-1.176-1.688-2.269l2.734-18.654
		c0.16-1.093,1.173-1.845,2.269-1.689c1.093,0.16,1.849,1.176,1.688,2.269l-2.734,18.654
		C500.701,246.641,499.847,247.357,498.871,247.357z"/>
	<path fill="#FFFFFF" d="M479.87,290.25c-0.884,0-1.692-0.59-1.931-1.483l-9.192-34.381l-8.204,2.196l8.33,31.152
		c0.286,1.067-0.348,2.163-1.416,2.448c-1.067,0.287-2.164-0.348-2.449-1.415l-8.847-33.083c-0.285-1.067,0.348-2.163,1.415-2.449
		l12.067-3.23c0.512-0.136,1.058-0.065,1.518,0.201c0.459,0.265,0.794,0.702,0.931,1.215l9.709,36.314
		c0.286,1.067-0.348,2.163-1.416,2.448C480.215,290.228,480.041,290.25,479.87,290.25z"/>
	<path fill="#FFFFFF" d="M459.494,262.41c-0.883,0-1.691-0.59-1.931-1.483l-4.116-15.396c-0.462-1.728-0.264-3.518,0.543-4.911
		c0.64-1.105,1.628-1.882,2.783-2.188l6.175-1.654c2.689-0.715,5.573,1.298,6.428,4.492l4.118,15.397
		c0.285,1.067-0.349,2.163-1.415,2.449c-1.067,0.287-2.164-0.349-2.449-1.416l-4.118-15.396c-0.321-1.199-1.175-1.764-1.531-1.661
		l-6.179,1.654c-0.167,0.044-0.292,0.225-0.352,0.328c-0.212,0.366-0.36,1.049-0.14,1.872l4.116,15.396
		c0.285,1.067-0.349,2.163-1.416,2.448C459.839,262.388,459.665,262.41,459.494,262.41z"/>
	<g>
		<path fill="#FFFFFF" d="M514.804,289.749c-0.211,0-0.426-0.034-0.637-0.104c-1.047-0.352-1.611-1.486-1.259-2.533l14.145-42.106
			c0.352-1.047,1.485-1.61,2.533-1.259c1.047,0.352,1.611,1.486,1.259,2.533L516.7,288.384
			C516.419,289.22,515.64,289.749,514.804,289.749z"/>
		<path fill="#FFFFFF" d="M508.199,290.25c-0.211,0-0.426-0.033-0.637-0.104c-1.047-0.353-1.611-1.486-1.258-2.533l14.972-44.551
			c0.352-1.046,1.486-1.609,2.533-1.259c1.047,0.352,1.61,1.486,1.259,2.533l-14.973,44.55
			C509.814,289.722,509.035,290.25,508.199,290.25z"/>
		<path fill="#FFFFFF" d="M528.948,247.641c-0.215,0-0.43-0.035-0.637-0.104l-5.777-1.942c-0.437-0.147-0.809-0.439-1.055-0.829
			c-0.436-0.692-4.213-6.905-2.504-11.992c1.368-4.075,4.248-5.189,6.788-6.172c2.962-1.146,5.52-2.136,7.065-7.808
			c0.209-0.767,0.853-1.337,1.639-1.453c0.788-0.112,1.567,0.246,1.987,0.92c0.26,0.416,6.322,10.29,3.447,19.178
			c-1.457,4.504-4.888,7.886-10.199,10.053C529.462,247.592,529.205,247.641,528.948,247.641z M524.519,242.042l4.345,1.46
			c3.783-1.695,6.215-4.146,7.233-7.293c1.342-4.149,0.116-8.794-1.156-11.974c-2.242,3.972-5.33,5.167-7.734,6.098
			c-2.21,0.855-3.67,1.42-4.44,3.714C521.936,236.521,523.549,240.276,524.519,242.042z"/>
		<path fill="#FFFFFF" d="M523.678,263.337c-0.212,0-0.428-0.034-0.64-0.105l-5.778-1.948c-1.047-0.353-1.609-1.487-1.257-2.534
			c0.353-1.047,1.487-1.61,2.534-1.256l5.779,1.947c1.046,0.354,1.609,1.488,1.256,2.534
			C525.291,262.81,524.512,263.337,523.678,263.337z"/>
	</g>
	<path fill="#FFFFFF" d="M455.959,207.403c-0.317,0-0.633-0.076-0.92-0.224c-0.471-0.244-0.826-0.665-0.986-1.17L408.658,63.061
		c-0.334-1.053,0.248-2.177,1.301-2.512l41.586-13.207c1.054-0.333,2.177,0.248,2.512,1.301s-0.248,2.177-1.301,2.512l-39.68,12.601
		l44.185,139.135l101.389-32.199L514.464,31.559l-38.825,12.33c-1.053,0.336-2.177-0.248-2.512-1.301
		c-0.334-1.053,0.248-2.177,1.301-2.512l40.731-12.936c0.506-0.16,1.054-0.113,1.525,0.13c0.471,0.244,0.826,0.665,0.986,1.17
		l45.396,142.946c0.334,1.053-0.248,2.177-1.301,2.512l-105.202,33.41C456.367,207.372,456.163,207.403,455.959,207.403z"/>
	<path fill="#FFFFFF" d="M461.103,192.469c-0.317,0-0.633-0.076-0.92-0.224c-0.471-0.244-0.826-0.665-0.986-1.17L421.132,71.209
		c-0.16-0.506-0.113-1.054,0.13-1.525s0.665-0.826,1.17-0.986l15.029-4.772c1.052-0.335,2.177,0.248,2.511,1.301
		s-0.249,2.177-1.301,2.512l-13.122,4.167l36.854,116.053l83.428-26.495L508.977,45.411l-12.756,4.051
		c-1.053,0.334-2.177-0.248-2.512-1.301s0.248-2.177,1.301-2.512l14.662-4.657c0.506-0.16,1.054-0.113,1.525,0.13
		c0.472,0.244,0.826,0.665,0.987,1.17l38.065,119.864c0.334,1.053-0.248,2.177-1.301,2.512l-87.24,27.706
		C461.511,192.438,461.307,192.469,461.103,192.469z"/>
	<path fill="#FFFFFF" d="M446.945,108.959c-0.848,0-1.635-0.544-1.906-1.395l-4.053-12.762c-0.161-0.506-0.114-1.054,0.13-1.525
		s0.665-0.826,1.171-0.986l12.762-4.052c0.505-0.159,1.054-0.113,1.525,0.13c0.471,0.244,0.826,0.665,0.986,1.171l4.052,12.762
		c0.334,1.053-0.249,2.177-1.301,2.511l-12.761,4.052C447.35,108.929,447.146,108.959,446.945,108.959z M445.404,95.497l2.842,8.95
		l8.949-2.841l-2.842-8.95L445.404,95.497z"/>
	<path fill="#FFFFFF" d="M455.269,135.167c-0.848,0-1.635-0.543-1.906-1.395l-4.053-12.761c-0.161-0.505-0.114-1.054,0.13-1.525
		c0.244-0.471,0.665-0.826,1.17-0.986l12.761-4.053c1.054-0.336,2.177,0.248,2.512,1.301l4.054,12.761
		c0.161,0.505,0.114,1.054-0.13,1.525c-0.244,0.471-0.665,0.826-1.17,0.986l-12.761,4.053
		C455.674,135.137,455.47,135.167,455.269,135.167z M453.728,121.707l2.842,8.949l8.949-2.842l-2.842-8.948L453.728,121.707z"/>
	<path fill="#FFFFFF" d="M463.592,161.376c-0.317,0-0.633-0.076-0.92-0.224c-0.471-0.244-0.826-0.665-0.986-1.171l-4.052-12.762
		c-0.334-1.053,0.249-2.177,1.301-2.511l12.761-4.052c0.506-0.159,1.055-0.113,1.525,0.13c0.471,0.244,0.826,0.665,0.986,1.171
		l4.051,12.761c0.334,1.053-0.249,2.177-1.301,2.511l-12.761,4.053C464,161.345,463.796,161.376,463.592,161.376z M462.052,147.915
		l2.842,8.949l8.948-2.842l-2.841-8.949L462.052,147.915z"/>
	<path fill="#FFFFFF" d="M470.772,101.393c-0.848,0-1.635-0.543-1.906-1.395c-0.334-1.053,0.248-2.177,1.301-2.512l41.054-13.038
		c1.053-0.336,2.177,0.248,2.512,1.301c0.334,1.053-0.248,2.177-1.301,2.512l-41.054,13.038
		C471.177,101.362,470.973,101.393,470.772,101.393z"/>
	<path fill="#FFFFFF" d="M468.746,95.011c-0.848,0-1.635-0.544-1.906-1.395c-0.334-1.053,0.248-2.177,1.301-2.512l23.093-7.333
		c1.052-0.336,2.177,0.249,2.511,1.301c0.334,1.053-0.249,2.177-1.301,2.512l-23.092,7.333
		C469.15,94.98,468.946,95.011,468.746,95.011z"/>
	<path fill="#FFFFFF" d="M479.094,127.601c-0.848,0-1.635-0.543-1.906-1.395c-0.334-1.053,0.248-2.177,1.301-2.512l41.055-13.039
		c1.053-0.335,2.177,0.249,2.512,1.301c0.334,1.053-0.248,2.177-1.301,2.512L479.7,127.507
		C479.499,127.571,479.295,127.601,479.094,127.601z"/>
	<path fill="#FFFFFF" d="M477.068,121.22c-0.848,0-1.635-0.543-1.906-1.395c-0.334-1.053,0.248-2.177,1.301-2.512l23.094-7.334
		c1.054-0.333,2.177,0.248,2.512,1.301s-0.248,2.177-1.301,2.512l-23.094,7.334C477.473,121.19,477.269,121.22,477.068,121.22z"/>
	<path fill="#FFFFFF" d="M487.418,153.81c-0.848,0-1.635-0.543-1.906-1.395c-0.334-1.053,0.248-2.177,1.301-2.512l41.055-13.039
		c1.054-0.334,2.177,0.248,2.512,1.301c0.334,1.053-0.248,2.177-1.301,2.512l-41.055,13.039
		C487.823,153.78,487.619,153.81,487.418,153.81z"/>
	<path fill="#FFFFFF" d="M485.393,147.429c-0.848,0-1.635-0.543-1.906-1.395c-0.334-1.053,0.248-2.177,1.301-2.512l23.092-7.333
		c1.054-0.334,2.177,0.248,2.512,1.301c0.334,1.053-0.248,2.177-1.301,2.512l-23.092,7.333
		C485.797,147.398,485.593,147.429,485.393,147.429z"/>
	<path fill="#FFFFFF" d="M436.08,74.919c-0.406,0-0.808-0.124-1.147-0.362c-0.511-0.358-0.825-0.933-0.851-1.556
		c-0.019-0.449-0.216-10.681,17.908-19.614c-0.755-1.081-1.346-2.272-1.746-3.533c-1.063-3.348-0.759-6.909,0.856-10.028
		c1.615-3.119,4.349-5.422,7.696-6.484c1.295-0.412,2.636-0.62,3.984-0.62c5.751,0,10.787,3.686,12.529,9.172
		c0.389,1.224,0.594,2.5,0.612,3.781c3.274-0.557,6.356-0.839,9.192-0.839c13.224,0,17.354,6.128,17.523,6.389
		c0.34,0.523,0.416,1.175,0.205,1.763c-0.21,0.588-0.683,1.043-1.277,1.232l-64.88,20.605
		C436.487,74.889,436.283,74.919,436.08,74.919z M462.781,36.722c-0.937,0-1.87,0.146-2.773,0.433
		c-2.33,0.739-4.231,2.341-5.355,4.511c-1.124,2.17-1.336,4.648-0.596,6.978c0.48,1.51,1.355,2.879,2.53,3.958
		c0.496,0.456,0.73,1.13,0.622,1.795c-0.108,0.665-0.544,1.23-1.159,1.505c-9.397,4.193-13.793,8.631-15.825,11.617
		c-0.606,0.891-1.041,1.706-1.353,2.416l58.07-18.443c-2.1-1.251-5.799-2.655-11.827-2.655c-3.312,0-7.019,0.423-11.015,1.256
		c-0.66,0.137-1.345-0.066-1.822-0.543c-0.477-0.476-0.682-1.161-0.545-1.821c0.319-1.536,0.238-3.134-0.234-4.622
		C470.285,39.288,466.782,36.722,462.781,36.722z"/>
	<path fill="#FFFFFF" d="M463.163,51.384c-2.466,0-4.622-1.58-5.366-3.931c-0.455-1.43-0.325-2.956,0.367-4.292
		c0.691-1.336,1.862-2.322,3.296-2.778c0.554-0.176,1.127-0.265,1.706-0.265c2.463,0,4.62,1.579,5.366,3.928
		c0.939,2.961-0.704,6.133-3.664,7.073C464.315,51.295,463.741,51.384,463.163,51.384z M463.166,44.118
		c-0.167,0-0.333,0.026-0.494,0.078c-0.416,0.132-0.756,0.418-0.956,0.805c-0.201,0.387-0.238,0.828-0.106,1.243
		c0.267,0.844,1.192,1.337,2.048,1.063c0.857-0.272,1.334-1.192,1.062-2.05C464.503,44.576,463.879,44.118,463.166,44.118z"/>
	<path fill="#FFFFFF" d="M451.812,103.201c-0.364,0-0.726-0.1-1.044-0.294l-3.214-1.967c-0.942-0.577-1.238-1.808-0.661-2.75
		c0.576-0.941,1.808-1.239,2.75-0.662l1.16,0.71l1.164-3.051c0.394-1.032,1.55-1.548,2.582-1.156c1.032,0.394,1.55,1.55,1.156,2.582
		l-2.023,5.301c-0.212,0.556-0.66,0.988-1.224,1.18C452.247,103.166,452.029,103.201,451.812,103.201z"/>
	<path fill="#FFFFFF" d="M85.779,237.086h-16c-1.104,0-2-0.896-2-2V131.378c0-1.104,0.896-2,2-2h16c1.104,0,2,0.896,2,2v103.708
		C87.779,236.19,86.884,237.086,85.779,237.086z M71.779,233.086h12v-99.708h-12V233.086z"/>
	<path fill="#FFFFFF" d="M365.779,237.086h-34c-1.104,0-2-0.896-2-2V131.378c0-1.104,0.896-2,2-2h34c1.104,0,2,0.896,2,2v103.708
		C367.779,236.19,366.884,237.086,365.779,237.086z M333.779,233.086h30v-99.708h-30V233.086z"/>
	<path fill="#FFFFFF" d="M297.686,126.709H69.779c-1.104,0-2-0.896-2-2v-8.291c0-1.104,0.896-2,2-2h227.906c1.104,0,2,0.896,2,2
		v8.291C299.686,125.814,298.79,126.709,297.686,126.709z M71.779,122.709h223.906v-4.291H71.779V122.709z"/>
	<path fill="#FFFFFF" d="M583.87,355.601h-537c-1.104,0-2-0.895-2-2c0-1.104,0.896-2,2-2h537c1.104,0,2,0.896,2,2
		C585.87,354.707,584.974,355.601,583.87,355.601z"/>
</g>
</svg>
