<?xml version="1.0" encoding="utf-8"?>
<!-- Generator: Adobe Illustrator 16.0.0, SVG Export Plug-In . SVG Version: 6.00 Build 0)  -->
<!DOCTYPE svg PUBLIC "-//W3C//DTD SVG 1.1//EN" "http://www.w3.org/Graphics/SVG/1.1/DTD/svg11.dtd">
<svg version="1.1" id="Capa_1" xmlns="http://www.w3.org/2000/svg" xmlns:xlink="http://www.w3.org/1999/xlink" x="0px" y="0px"
	 width="630.739px" height="377.607px" viewBox="0 0 630.739 377.607" enable-background="new 0 0 630.739 377.607"
	 xml:space="preserve">
<g>
	<g>
		<path fill="#FFFFFF" d="M330.821,240.939h-44.105c-1.104,0-2-0.896-2-2V113.301c0-1.104,0.896-2,2-2h44.105c1.104,0,2,0.896,2,2
			v125.639C332.821,240.044,331.925,240.939,330.821,240.939z M288.715,236.939h40.105V115.301h-40.105V236.939z"/>
		<path fill="#FFFFFF" d="M320.128,115.301h-22.722c-1.104,0-2-0.896-2-2V96.592c0-1.104,0.896-2,2-2h22.722c1.104,0,2,0.896,2,2
			v16.709C322.128,114.405,321.233,115.301,320.128,115.301z M299.407,111.301h18.722V98.592h-18.722V111.301z"/>
		<path fill="#FFFFFF" d="M320.128,256.755h-22.722c-1.104,0-2-0.896-2-2v-15.815c0-1.104,0.896-2,2-2h22.722c1.104,0,2,0.896,2,2
			v15.815C322.128,255.859,321.233,256.755,320.128,256.755z M299.407,252.755h18.722v-11.815h-18.722V252.755z"/>
		<path fill="#FFFFFF" d="M355.087,184.469h-24.267v-4h24.267c13.913,0,25.231-11.32,25.231-25.233S369,130.003,355.087,130.003
			h-68.372v-4h68.372c16.118,0,29.231,13.113,29.231,29.232S371.206,184.469,355.087,184.469z"/>
		<path fill="#FFFFFF" d="M355.087,168.908c-7.538,0-13.67-6.134-13.67-13.673c0-7.538,6.132-13.671,13.67-13.671
			c7.54,0,13.674,6.133,13.674,13.671C368.761,162.774,362.627,168.908,355.087,168.908z M355.087,145.564
			c-5.332,0-9.67,4.338-9.67,9.671s4.338,9.673,9.67,9.673c5.334,0,9.674-4.34,9.674-9.673S360.421,145.564,355.087,145.564z"/>
		<path fill="#FFFFFF" d="M356.302,302.876c-4.328,0-7.849-3.521-7.849-7.848s3.521-7.849,7.849-7.849
			c4.327,0,7.847,3.521,7.847,7.849S360.629,302.876,356.302,302.876z M356.302,291.18c-2.122,0-3.849,1.727-3.849,3.849
			s1.727,3.848,3.849,3.848c2.121,0,3.847-1.726,3.847-3.848S358.423,291.18,356.302,291.18z"/>
		<path fill="#FFFFFF" d="M369.246,334.722h-27.73c-1.104,0-2-0.896-2-2v-52.911c0-1.104,0.896-2,2-2h13.572
			c25.734,0,46.67-20.937,46.67-46.671s-20.936-46.671-46.67-46.671v-4c27.939,0,50.67,22.73,50.67,50.671
			c0,27.939-22.73,50.671-50.67,50.671h-11.572v48.911h23.73v-22.787c0-0.966,0.69-1.794,1.64-1.968
			c36.086-6.61,62.277-38.079,62.277-74.827c0-31.629-19.907-60.29-49.536-71.319l1.396-3.749
			c31.187,11.61,52.14,41.777,52.14,75.068c0,38.12-26.781,70.845-63.917,78.444v23.138
			C371.246,333.826,370.35,334.722,369.246,334.722z"/>
		<path fill="#FFFFFF" d="M341.515,294.736h-67.72c-1.104,0-2-0.896-2-2v-12.92c0-1.104,0.896-2,2-2h67.72c1.104,0,2,0.896,2,2
			v12.92C343.515,293.841,342.62,294.736,341.515,294.736z M275.795,290.736h63.72v-8.92h-63.72V290.736z"/>
		<path fill="#FFFFFF" d="M402.25,345.36h-91.892c-1.104,0-2-0.896-2-2v-10.639c0-1.104,0.896-2,2-2h91.892c1.104,0,2,0.896,2,2
			v10.639C404.25,344.465,403.354,345.36,402.25,345.36z M312.358,341.36h87.892v-6.639h-87.892V341.36z"/>
		<path fill="#FFFFFF" d="M438.169,356H274.435c-1.104,0-2-0.896-2-2v-10.64c0-1.104,0.896-2,2-2h163.734c1.104,0,2,0.896,2,2V354
			C440.169,355.104,439.274,356,438.169,356z M276.435,352h159.734v-6.64H276.435V352z"/>
	</g>
	<g>
		<path fill="#FFFFFF" d="M123.234,355.216H63.036c-1.104,0-2-0.896-2-2V140.323c0-1.104,0.896-2,2-2h60.199c1.104,0,2,0.896,2,2
			v212.893C125.234,354.32,124.339,355.216,123.234,355.216z M65.036,351.216h56.199V142.323H65.036V351.216z"/>
		<path fill="#FFFFFF" d="M93.134,196.056c-8.244,0-14.95-6.707-14.95-14.95s6.706-14.949,14.95-14.949s14.95,6.706,14.95,14.949
			S101.378,196.056,93.134,196.056z M93.134,170.156c-6.038,0-10.95,4.912-10.95,10.949c0,6.038,4.912,10.95,10.95,10.95
			c6.038,0,10.95-4.912,10.95-10.95C104.084,175.068,99.172,170.156,93.134,170.156z"/>
		<path fill="#FFFFFF" d="M106.084,333.866h-25.9c-1.104,0-2-0.896-2-2v-74.33c0-1.104,0.896-2,2-2h25.9c1.104,0,2,0.896,2,2v74.33
			C108.084,332.971,107.189,333.866,106.084,333.866z M82.185,329.866h21.9v-70.33h-21.9V329.866z"/>
		<path fill="#FFFFFF" d="M149.278,353.625c-0.443,0-0.877-0.147-1.23-0.424c-0.418-0.326-0.689-0.806-0.754-1.332L121.25,140.576
			c-0.135-1.096,0.644-2.094,1.74-2.229l59.747-7.364c0.527-0.066,1.057,0.082,1.475,0.408s0.689,0.806,0.754,1.332l26.043,211.293
			c0.135,1.096-0.644,2.094-1.74,2.229l-59.747,7.364C149.441,353.62,149.359,353.625,149.278,353.625z M125.464,142.072
			l25.555,207.323l55.776-6.876l-25.554-207.323L125.464,142.072z"/>
		<path fill="#FFFFFF" d="M158.08,192.076c-7.526,0-13.898-5.642-14.821-13.122c-1.008-8.181,4.828-15.657,13.009-16.665
			c0.611-0.076,1.232-0.114,1.845-0.114c7.526,0,13.898,5.642,14.821,13.122c1.007,8.182-4.829,15.657-13.009,16.665
			C159.313,192.038,158.692,192.076,158.08,192.076z M158.113,166.175c-0.45,0-0.906,0.028-1.356,0.084
			c-5.992,0.738-10.266,6.214-9.528,12.206c0.676,5.479,5.341,9.611,10.852,9.611c0.449,0,0.905-0.028,1.355-0.084
			c5.992-0.738,10.267-6.214,9.528-12.206C168.288,170.308,163.623,166.175,158.113,166.175z"/>
		<path fill="#FFFFFF" d="M163.687,330.337c-0.996,0-1.857-0.742-1.982-1.755l-9.094-73.771c-0.065-0.526,0.082-1.058,0.408-1.476
			s0.806-0.689,1.332-0.754l25.704-3.168c1.095-0.14,2.094,0.644,2.229,1.74l9.094,73.771c0.065,0.526-0.082,1.057-0.408,1.475
			c-0.327,0.419-0.806,0.689-1.332,0.755l-25.704,3.168C163.851,330.332,163.768,330.337,163.687,330.337z M156.825,256.306
			l8.604,69.802l21.734-2.679l-8.604-69.802L156.825,256.306z"/>
	</g>
	<g>
		<path fill="#FFFFFF" d="M461.821,176.571c-0.867,0-1.665-0.567-1.919-1.441l-24.613-84.583c-0.149-0.512-0.087-1.062,0.171-1.528
			l25.172-45.434c0.256-0.462,0.684-0.804,1.191-0.951l54.653-15.904c0.508-0.147,1.056-0.087,1.521,0.168
			c0.465,0.255,0.809,0.685,0.958,1.194l24.88,85.501c0.309,1.061-0.301,2.171-1.362,2.479s-2.17-0.302-2.479-1.362l-24.321-83.581
			l-51.941,15.115l-24.37,43.984l23.821,81.863l86.208-25.085l-2.908-9.994c-0.309-1.061,0.301-2.171,1.362-2.479
			c1.06-0.309,2.17,0.302,2.479,1.362l3.466,11.914c0.309,1.061-0.301,2.17-1.362,2.479l-90.048,26.203
			C462.194,176.546,462.006,176.571,461.821,176.571z"/>
		<path fill="#FFFFFF" d="M437.208,91.988c-0.867,0-1.665-0.567-1.919-1.441c-0.309-1.061,0.301-2.171,1.362-2.479l33.476-9.74
			l-9.665-33.214c-0.309-1.061,0.301-2.171,1.362-2.479c1.06-0.309,2.17,0.302,2.479,1.362l10.224,35.134
			c0.148,0.509,0.088,1.057-0.167,1.521s-0.685,0.809-1.194,0.957l-35.396,10.3C437.581,91.963,437.393,91.988,437.208,91.988z"/>
		<path fill="#FFFFFF" d="M505.105,118.948c-12.353,0-22.795-9.261-24.29-21.541c-1.63-13.41,7.952-25.646,21.359-27.275
			c0.99-0.121,1.995-0.182,2.986-0.182c12.354,0,22.797,9.261,24.291,21.541c0.79,6.495-0.997,12.909-5.032,18.062
			c-4.035,5.152-9.834,8.425-16.33,9.214C507.101,118.888,506.097,118.948,505.105,118.948z M505.162,73.95
			c-0.831,0-1.673,0.051-2.503,0.152c-11.218,1.363-19.235,11.602-17.872,22.821c1.25,10.275,9.986,18.024,20.319,18.024
			c0.831,0,1.672-0.051,2.503-0.152c5.435-0.66,10.287-3.398,13.663-7.709c3.376-4.312,4.872-9.679,4.21-15.112
			C524.232,81.698,515.497,73.95,505.162,73.95z"/>
		<path fill="#FFFFFF" d="M558.595,145.375c-0.432,0-0.855-0.141-1.204-0.403l-25.252-19.045c-0.622-0.469-0.915-1.257-0.751-2.019
			l1.299-6.03l-10.922-8.1c-0.887-0.657-1.073-1.91-0.415-2.798c0.657-0.886,1.91-1.073,2.798-0.415l10.923,8.101l4.886-2.702
			c0.696-0.385,1.552-0.321,2.182,0.16l25.286,19.315c0.867,0.662,1.043,1.896,0.397,2.774l-7.616,10.347
			c-0.317,0.431-0.793,0.716-1.322,0.793C558.788,145.368,558.691,145.375,558.595,145.375z M535.567,123.502l22.617,17.058
			l5.251-7.135l-22.686-17.328l-4.072,2.252L535.567,123.502z"/>
		<g>
			<path fill="#FFFFFF" d="M517.674,142.738c-0.881,0-1.688-0.586-1.929-1.477l-6.672-24.569c-0.29-1.066,0.34-2.165,1.406-2.454
				c1.067-0.288,2.165,0.341,2.454,1.406l6.672,24.569c0.29,1.065-0.34,2.164-1.406,2.454
				C518.024,142.715,517.848,142.738,517.674,142.738z"/>
			<path fill="#FFFFFF" d="M508.337,118.462c-0.881,0-1.688-0.586-1.929-1.477l-2.164-7.967c-0.29-1.066,0.34-2.165,1.406-2.454
				c1.066-0.288,2.165,0.341,2.454,1.406l2.164,7.967c0.29,1.066-0.34,2.165-1.406,2.454
				C508.687,118.439,508.511,118.462,508.337,118.462z"/>
			<path fill="#FFFFFF" d="M506.442,145.789c-0.881,0-1.688-0.586-1.929-1.477l-6.347-23.374c-0.29-1.065,0.34-2.164,1.406-2.454
				c1.066-0.288,2.165,0.341,2.454,1.406l6.347,23.374c0.29,1.065-0.34,2.164-1.406,2.454
				C506.792,145.766,506.616,145.789,506.442,145.789z"/>
			<path fill="#FFFFFF" d="M495.212,148.838c-0.881,0-1.687-0.586-1.929-1.476l-4.605-16.955c-0.29-1.065,0.34-2.165,1.406-2.454
				c1.069-0.287,2.165,0.34,2.455,1.405l4.605,16.955c0.29,1.065-0.34,2.165-1.406,2.454
				C495.562,148.815,495.385,148.838,495.212,148.838z"/>
			<path fill="#FFFFFF" d="M483.981,151.888c-0.881,0-1.687-0.586-1.929-1.476l-3.174-11.687c-0.29-1.066,0.34-2.165,1.406-2.454
				c1.069-0.287,2.165,0.341,2.455,1.405l3.174,11.687c0.29,1.066-0.34,2.165-1.406,2.454
				C484.331,151.865,484.154,151.888,483.981,151.888z"/>
			<path fill="#FFFFFF" d="M475.866,134.682c-0.675,0-1.334-0.343-1.711-0.962c-0.574-0.943-0.274-2.174,0.67-2.748
				c5.857-3.562,11.963-9.337,18.146-17.165c0.684-0.866,1.942-1.014,2.809-0.33c0.867,0.685,1.014,1.942,0.33,2.81
				c-6.479,8.202-12.941,14.294-19.207,18.104C476.578,134.587,476.22,134.682,475.866,134.682z"/>
			<path fill="#FFFFFF" d="M492.91,115.182c-0.454,0-0.91-0.153-1.285-0.468c-0.846-0.71-0.957-1.972-0.247-2.818
				c6.46-7.699,11.354-15.53,12.679-18.989c0.396-1.031,1.55-1.548,2.583-1.152c1.032,0.396,1.547,1.552,1.152,2.583
				c-1.478,3.857-6.538,12.011-13.35,20.13C494.047,114.938,493.48,115.182,492.91,115.182z"/>
			<path fill="#FFFFFF" d="M508.892,102.913c-0.929,0-1.761-0.65-1.957-1.596l-1.357-6.562l-6.932,1.883
				c-1.066,0.287-2.165-0.34-2.454-1.406s0.34-2.165,1.406-2.454l8.984-2.44c0.532-0.146,1.101-0.063,1.571,0.227
				c0.47,0.288,0.8,0.759,0.912,1.299l1.787,8.646c0.224,1.081-0.472,2.14-1.554,2.363
				C509.163,102.899,509.026,102.913,508.892,102.913z"/>
		</g>
	</g>
	<path fill="#FFFFFF" d="M584.87,356h-539c-1.104,0-2-0.896-2-2s0.896-2,2-2h539c1.104,0,2,0.896,2,2S585.974,356,584.87,356z"/>
</g>
</svg>
