<?xml version="1.0" encoding="utf-8"?>
<!-- Generator: Adobe Illustrator 16.0.0, SVG Export Plug-In . SVG Version: 6.00 Build 0)  -->
<!DOCTYPE svg PUBLIC "-//W3C//DTD SVG 1.1//EN" "http://www.w3.org/Graphics/SVG/1.1/DTD/svg11.dtd">
<svg version="1.1" id="Capa_1" xmlns="http://www.w3.org/2000/svg" xmlns:xlink="http://www.w3.org/1999/xlink" x="0px" y="0px"
	 width="842px" height="436.422px" viewBox="0 0 842 436.422" enable-background="new 0 0 842 436.422" xml:space="preserve">
<g>
	<path fill="#FFFFFF" d="M27.706,435.26c-0.991,0-1.851-0.736-1.981-1.744c-2.035-15.766,5.628-29.744,12.809-36.922
		c20.027-20.027,52.719-19.92,72.876,0.236c3.963,3.963,7.217,8.471,9.702,13.436c0.144-0.16,0.292-0.316,0.442-0.467
		c4.834-4.836,12.487-5.619,18.944-2.303c0.605-5.834,3.312-11.463,7.706-15.857c3.826-3.824,8.583-6.377,13.649-7.369
		c-7.285-13-4.488-30.088,7.224-41.799c13.981-13.98,35.723-14.99,48.467-2.246c0.781,0.779,0.781,2.047,0,2.828
		c-0.78,0.781-2.047,0.781-2.828,0c-11.185-11.182-30.39-10.176-42.81,2.246c-11.172,11.172-13.3,27.74-5.061,39.396
		c0.419,0.592,0.484,1.363,0.171,2.018c-0.312,0.654-0.955,1.088-1.679,1.133c-5.284,0.33-10.364,2.682-14.305,6.621
		c-4.519,4.52-6.939,10.541-6.639,16.521c0.039,0.785-0.384,1.52-1.082,1.879c-0.698,0.357-1.542,0.277-2.157-0.209
		c-5.349-4.232-12.56-4.246-16.773-0.029c-0.668,0.666-1.253,1.498-1.843,2.619c-0.361,0.688-1.087,1.086-1.859,1.066
		c-0.774-0.035-1.458-0.514-1.757-1.229c-2.413-5.789-5.893-10.979-10.342-15.428c-18.598-18.598-48.752-18.703-67.219-0.236
		c-6.54,6.537-13.52,19.256-11.671,33.582c0.142,1.096-0.632,2.098-1.728,2.238C27.877,435.254,27.791,435.26,27.706,435.26z"/>
	<path fill="#FFFFFF" d="M802.283,436.422c-0.744,0-1.458-0.416-1.803-1.131c-0.48-0.994-0.063-2.191,0.932-2.67
		c8.484-4.096,10.953-10.832,11.53-15.76c0.865-7.385-2.073-15.424-7.146-19.551c-4.87-3.961-13.026-6.137-18.544-6.482
		c-0.723-0.045-1.365-0.479-1.679-1.133c-0.313-0.652-0.248-1.426,0.171-2.018c8.24-11.656,6.112-28.225-5.06-39.396
		c-12.422-12.42-31.626-13.43-42.811-2.246c-0.781,0.781-2.047,0.781-2.828,0s-0.781-2.047,0-2.828
		c12.744-12.742,34.486-11.732,48.467,2.246c11.693,11.693,14.501,28.746,7.258,41.738c5.875,0.889,12.874,3.213,17.55,7.016
		c6.076,4.943,9.61,14.451,8.595,23.119c-0.98,8.375-5.869,15.086-13.764,18.896C802.871,436.357,802.574,436.422,802.283,436.422z"
		/>
	<g>
		<path fill="#FFFFFF" d="M482.946,352.76c-1.104,0-2-0.896-2-2c0-10.969-9.94-19.893-22.158-19.893
			c-10.991,0-20.188,7.086-21.867,16.848c-0.123,0.715-0.623,1.307-1.307,1.549c-0.685,0.238-1.445,0.092-1.988-0.389
			c-2.726-2.406-6.34-3.732-10.176-3.732c-4.397,0-8.502,1.748-11.262,4.797c-0.526,0.582-1.345,0.801-2.093,0.562
			c-0.747-0.24-1.286-0.895-1.376-1.676c-0.525-4.541-3.912-7.967-7.877-7.967c-0.616,0-1.277,0.115-2.081,0.365
			c-0.739,0.232-1.547,0.014-2.069-0.559c-0.523-0.572-0.669-1.395-0.374-2.111c1.676-4.068,2.525-8.371,2.525-12.783
			c0-18.451-14.903-33.463-33.221-33.463c-5.473,0-10.7,1.309-15.535,3.891c-0.885,0.473-1.984,0.215-2.568-0.6
			c-3.612-5.039-9.392-8.049-15.46-8.049c-10.574,0-19.177,8.818-19.177,19.656c0,1.105-0.896,2-2,2s-2-0.895-2-2
			c0-13.045,10.397-23.656,23.177-23.656c6.788,0,13.27,3.096,17.658,8.355c4.955-2.357,10.419-3.598,15.905-3.598
			c20.523,0,37.22,16.805,37.22,37.463c0,3.791-0.561,7.51-1.669,11.092c4.74,0.145,8.871,3.379,10.665,8.025
			c3.254-2.41,7.331-3.746,11.611-3.746c3.704,0,7.257,0.996,10.272,2.848c3.219-10.086,13.275-17.123,25.065-17.123
			c14.424,0,26.158,10.717,26.158,23.893C484.946,351.863,484.051,352.76,482.946,352.76z"/>
		<path fill="#FFFFFF" d="M216.129,342.854c-0.206,0-0.415-0.031-0.621-0.1c-1.05-0.342-1.624-1.471-1.281-2.521
			c1.625-4.98,5.451-9.129,10.496-11.385c3.381-1.512,7.032-2.051,10.541-1.59c-1.176-10.523,5.134-21.053,15.899-25.863
			c13.17-5.883,28.256-0.883,33.63,11.146c0.45,1.008-0.002,2.191-1.011,2.643c-1.008,0.449-2.191-0.002-2.642-1.012
			c-4.474-10.016-17.188-14.109-28.346-9.125c-10.035,4.484-15.541,14.707-13.091,24.309c0.179,0.701-0.036,1.447-0.562,1.945
			s-1.282,0.672-1.973,0.457c-3.471-1.086-7.312-0.822-10.813,0.742c-4.016,1.795-7.05,5.064-8.325,8.973
			C217.755,342.318,216.972,342.854,216.129,342.854z"/>
		<path fill="#FFFFFF" d="M496.722,350.76h-4c0-13.176,11.734-23.893,26.158-23.893c11.792,0,21.848,7.037,25.062,17.125
			c3.019-1.854,6.571-2.85,10.275-2.85c4.28,0,8.357,1.338,11.612,3.746c1.795-4.646,5.926-7.881,10.664-8.025
			c-1.109-3.584-1.669-7.301-1.669-11.092c0-20.658,16.697-37.463,37.221-37.463c5.487,0,10.951,1.24,15.905,3.598
			c4.387-5.262,10.865-8.355,17.648-8.355c12.782,0,23.182,10.611,23.182,23.656h-4c0-10.838-8.605-19.656-19.182-19.656
			c-6.153,0-11.785,2.934-15.452,8.049c-0.585,0.816-1.684,1.072-2.567,0.6c-4.833-2.582-10.06-3.891-15.534-3.891
			c-18.318,0-33.221,15.012-33.221,33.463c0,4.412,0.849,8.713,2.523,12.783c0.295,0.717,0.148,1.541-0.375,2.111
			c-0.523,0.572-1.33,0.791-2.07,0.559c-0.802-0.25-1.462-0.365-2.078-0.365c-3.963,0-7.349,3.426-7.877,7.969
			c-0.091,0.779-0.629,1.434-1.376,1.674c-0.748,0.238-1.566,0.02-2.093-0.562c-2.761-3.049-6.865-4.797-11.262-4.797
			c-3.836,0-7.451,1.326-10.18,3.734c-0.543,0.479-1.303,0.627-1.988,0.387c-0.684-0.242-1.184-0.834-1.307-1.549
			c-1.648-9.605-11.048-16.848-21.863-16.848C506.661,330.867,496.722,339.791,496.722,350.76z"/>
		<path fill="#FFFFFF" d="M474.952,335.852l-1.347-3.766c0.35-0.129,8.701-3.291,9.837-12.863v-33.672c0-1.105,0.896-2,2-2h6.785
			c1.104,0,2,0.895,2,2v33.672c1.144,9.646,9.744,12.832,9.832,12.863l-1.348,3.766c-0.453-0.162-11.105-4.107-12.472-16.291
			c-0.009-0.074-0.013-0.148-0.013-0.223v-31.787h-2.785v31.787c0,0.074-0.005,0.148-0.013,0.223
			C486.06,331.744,475.405,335.689,474.952,335.852z"/>
		<path fill="#FFFFFF" d="M341.669,156.711c-1.104,0-2-0.896-2-2c0-7.736-2.818-11.037-9.423-11.037c-1.104,0-2-0.896-2-2
			c0-1.105,0.896-2,2-2c6.252,0,9.423-3.492,9.423-10.379c0-1.105,0.896-2,2-2s2,0.895,2,2c0,6.596,3.435,10.379,9.423,10.379
			c1.104,0,2,0.895,2,2c0,1.104-0.896,2-2,2c-6.517,0-9.423,3.402-9.423,11.037C343.669,155.814,342.773,156.711,341.669,156.711z
			 M338.12,141.613c1.494,0.938,2.688,2.213,3.581,3.826c0.982-1.73,2.257-2.975,3.688-3.855c-1.491-0.973-2.721-2.264-3.653-3.838
			C340.83,139.348,339.617,140.645,338.12,141.613z"/>
		<path fill="#FFFFFF" d="M693.019,101.641c-1.104,0-2-0.896-2-2c0-7.736-2.818-11.037-9.424-11.037c-1.104,0-2-0.896-2-2
			c0-1.105,0.896-2,2-2c6.253,0,9.424-3.494,9.424-10.381c0-1.105,0.896-2,2-2s2,0.895,2,2c0,6.596,3.434,10.381,9.422,10.381
			c1.104,0,2,0.895,2,2c0,1.104-0.896,2-2,2c-6.517,0-9.422,3.402-9.422,11.037C695.019,100.744,694.123,101.641,693.019,101.641z
			 M689.407,86.582c1.402,0.885,2.649,2.129,3.611,3.844c0.985-1.76,2.273-3.023,3.72-3.912c-1.492-0.973-2.722-2.264-3.653-3.838
			C692.167,84.299,690.934,85.609,689.407,86.582z"/>
		<path fill="#FFFFFF" d="M252.938,188.098c-2.973,0-5.391-2.42-5.391-5.391c0-2.973,2.418-5.391,5.391-5.391
			s5.392,2.418,5.392,5.391C258.33,185.678,255.911,188.098,252.938,188.098z M252.938,181.316c-0.767,0-1.391,0.623-1.391,1.391
			c0,0.766,0.624,1.391,1.391,1.391c0.768,0,1.392-0.625,1.392-1.391C254.33,181.939,253.706,181.316,252.938,181.316z"/>
		<path fill="#FFFFFF" d="M319.418,52.145c-2.875,0-5.215-2.338-5.215-5.211c0-2.877,2.339-5.215,5.215-5.215
			c2.872,0,5.209,2.338,5.209,5.215C324.627,49.807,322.29,52.145,319.418,52.145z M319.418,45.719c-0.67,0-1.215,0.545-1.215,1.215
			c0,0.666,0.545,1.211,1.215,1.211c0.667,0,1.209-0.545,1.209-1.211C320.627,46.264,320.085,45.719,319.418,45.719z"/>
		<path fill="#FFFFFF" d="M561.586,34.844c-2.774,0-5.031-2.26-5.031-5.035s2.257-5.033,5.031-5.033
			c2.776,0,5.035,2.258,5.035,5.033S564.362,34.844,561.586,34.844z M561.586,28.775c-0.569,0-1.031,0.463-1.031,1.033
			s0.462,1.035,1.031,1.035c0.57,0,1.035-0.465,1.035-1.035S562.156,28.775,561.586,28.775z"/>
		<path fill="#FFFFFF" d="M681.595,212.939c-2.973,0-5.391-2.42-5.391-5.391c0-2.973,2.418-5.391,5.391-5.391
			c2.972,0,5.391,2.418,5.391,5.391C686.985,210.52,684.566,212.939,681.595,212.939z M681.595,206.158
			c-0.767,0-1.391,0.623-1.391,1.391c0,0.766,0.624,1.391,1.391,1.391s1.391-0.625,1.391-1.391
			C682.985,206.781,682.361,206.158,681.595,206.158z"/>
		<path fill="#FFFFFF" d="M583.326,132.309c-2.873,0-5.21-2.34-5.21-5.213c0-2.875,2.337-5.211,5.21-5.211
			c2.874,0,5.213,2.336,5.213,5.211C588.539,129.969,586.2,132.309,583.326,132.309z M583.326,125.885
			c-0.667,0-1.21,0.543-1.21,1.211s0.543,1.213,1.21,1.213c0.669,0,1.213-0.545,1.213-1.213S583.995,125.885,583.326,125.885z"/>
		<path fill="#FFFFFF" d="M442.416,277.766c-0.802,0-1.536-0.482-1.848-1.236c-7.832-19.004-8.772-35.375-2.793-48.662
			c7.425-16.5,22.751-21.98,23.4-22.207c0.611-0.213,1.287-0.115,1.815,0.26c0.527,0.375,0.84,0.982,0.84,1.631v49.143
			c0,1.039-0.797,1.906-1.834,1.992c-6.124,0.51-10.93,3.535-14.282,8.988c-2.593,4.221-3.317,8.381-3.324,8.422
			c-0.149,0.881-0.863,1.557-1.75,1.656C442.565,277.762,442.49,277.766,442.416,277.766z M459.831,210.627
			c-4.475,2.256-13.509,7.945-18.435,18.939c-4.932,11.01-4.644,24.492,0.847,40.141c2.318-5.484,7.342-13.154,17.588-14.787
			V210.627z"/>
		<path fill="#FFFFFF" d="M535.248,277.768c-0.075,0-0.151-0.006-0.228-0.014c-0.887-0.102-1.599-0.777-1.746-1.658l0,0
			c-0.007-0.041-0.732-4.201-3.326-8.422c-3.353-5.453-8.158-8.479-14.283-8.988c-1.036-0.086-1.834-0.953-1.834-1.992v-49.143
			c0-0.648,0.313-1.256,0.841-1.631s1.204-0.473,1.815-0.26c0.648,0.227,15.976,5.707,23.401,22.207
			c5.979,13.287,5.04,29.658-2.792,48.662C536.785,277.283,536.051,277.768,535.248,277.768z M517.831,254.92
			c10.248,1.633,15.271,9.303,17.591,14.787c5.499-15.676,5.778-29.178,0.819-40.197c-4.95-11-13.947-16.652-18.41-18.891V254.92z"
			/>
		<path fill="#FFFFFF" d="M515.831,268.551h-54c-1.104,0-2-0.895-2-2v-92.512c0-0.072,0.004-0.145,0.012-0.217
			c3.074-28.18,27.015-42.42,28.032-43.012c0.625-0.363,1.396-0.361,2.02,0.004c26.179,15.369,27.875,42.957,27.935,44.123
			c0.001,0.033,0.002,0.068,0.002,0.102v91.512C517.831,267.656,516.936,268.551,515.831,268.551z M463.831,264.551h50V175.1
			c-0.079-1.168-2.078-26.096-24.92-40.209c-4.437,2.951-22.525,16.305-25.08,39.258V264.551z"/>
		<path fill="#FFFFFF" d="M488.831,179.539c-8.271,0-15-6.729-15-15s6.729-15,15-15c8.271,0,15,6.729,15,15
			S497.103,179.539,488.831,179.539z M488.831,153.539c-6.065,0-11,4.936-11,11c0,6.066,4.935,11,11,11s11-4.934,11-11
			C499.831,158.475,494.896,153.539,488.831,153.539z"/>
		<path fill="#FFFFFF" d="M488.831,277.551c-1.104,0-2-0.895-2-2v-61.5c0-1.104,0.896-2,2-2s2,0.896,2,2v61.5
			C490.831,276.656,489.936,277.551,488.831,277.551z"/>
		<path fill="#FFFFFF" d="M504.329,287.551h-30.996c-0.945,0-1.762-0.662-1.957-1.588l-4.002-19
			c-0.124-0.59,0.024-1.203,0.404-1.672s0.95-0.74,1.553-0.74h39c0.603,0,1.174,0.271,1.554,0.74s0.527,1.082,0.403,1.672l-4.002,19
			C506.092,286.889,505.275,287.551,504.329,287.551z M474.956,283.551h27.751l3.159-15h-34.069L474.956,283.551z"/>
		<path fill="#FFFFFF" d="M724.111,331.926c-0.151,0-0.306-0.016-0.459-0.053c-1.075-0.252-1.742-1.328-1.49-2.404
			c2.33-9.932-3.854-19.908-13.786-22.238c-4.81-1.129-9.772-0.316-13.973,2.287s-7.135,6.688-8.264,11.5
			c-0.252,1.076-1.328,1.744-2.404,1.49c-1.075-0.252-1.742-1.328-1.49-2.404c1.373-5.852,4.942-10.818,10.051-13.986
			c5.107-3.166,11.143-4.152,16.994-2.781c12.079,2.834,19.6,14.969,16.767,27.047C725.84,331.305,725.019,331.926,724.111,331.926z
			"/>
		<path fill="#FFFFFF" d="M736.777,346.416c-0.53,0-1.061-0.209-1.453-0.625c-0.759-0.803-0.724-2.068,0.079-2.828
			c1.446-1.367,2.273-3.217,2.329-5.207s-0.667-3.883-2.035-5.33c-2.824-2.984-7.552-3.119-10.538-0.293
			c-0.803,0.758-2.068,0.723-2.827-0.08s-0.724-2.068,0.079-2.826c4.589-4.34,11.852-4.139,16.192,0.451
			c2.102,2.223,3.213,5.131,3.128,8.189c-0.086,3.059-1.357,5.9-3.58,8.002C737.765,346.234,737.271,346.416,736.777,346.416z"/>
		<path fill="#FFFFFF" d="M684.192,321.848c-1.104,0-2-0.896-2-2c0-6.482-5.271-11.754-11.75-11.754
			c-6.479,0-11.75,5.271-11.75,11.754c0,1.104-0.896,2-2,2s-2-0.896-2-2c0-8.688,7.065-15.754,15.75-15.754
			s15.75,7.066,15.75,15.754C686.192,320.951,685.297,321.848,684.192,321.848z"/>
		<path fill="#FFFFFF" d="M656.322,375.732c-0.188,0-0.377-0.027-0.565-0.082c-1.06-0.312-1.666-1.424-1.354-2.482
			c1.107-3.77-1.059-7.738-4.828-8.846c-3.771-1.107-7.737,1.059-8.844,4.828c-0.312,1.059-1.424,1.668-2.482,1.355
			c-1.061-0.312-1.667-1.424-1.355-2.482c1.729-5.885,7.923-9.27,13.81-7.539c5.886,1.729,9.268,7.924,7.538,13.811
			C657.983,375.166,657.187,375.73,656.322,375.732z"/>
		<path fill="#FFFFFF" d="M265.23,364.033c-0.902,0-1.72-0.613-1.942-1.527c-0.7-2.889-0.234-5.877,1.312-8.414
			s3.989-4.32,6.878-5.02c2.887-0.701,5.874-0.236,8.412,1.311c2.537,1.547,4.32,3.99,5.021,6.877
			c0.261,1.074-0.398,2.156-1.472,2.416c-1.072,0.268-2.154-0.398-2.415-1.473c-0.449-1.85-1.591-3.414-3.216-4.404
			s-3.538-1.287-5.388-0.84c-1.85,0.447-3.414,1.59-4.405,3.215s-1.29,3.539-0.84,5.389c0.26,1.072-0.399,2.154-1.473,2.414
			C265.545,364.016,265.387,364.033,265.23,364.033z"/>
		<path fill="#FFFFFF" d="M316.132,336.76c-0.377,0-0.76-0.107-1.099-0.33c-0.922-0.609-1.177-1.85-0.569-2.771
			c5.42-8.223,3.14-19.324-5.083-24.748c-3.983-2.627-8.75-3.541-13.425-2.584c-4.674,0.961-8.693,3.686-11.319,7.67
			c-0.607,0.922-1.849,1.178-2.771,0.57s-1.177-1.848-0.569-2.771c3.213-4.877,8.134-8.211,13.854-9.387
			c5.72-1.176,11.556-0.053,16.432,3.162c10.064,6.637,12.855,20.225,6.221,30.289C317.42,336.443,316.782,336.76,316.132,336.76z"
			/>
	</g>
</g>
</svg>
