<?xml version="1.0" encoding="utf-8"?>
<!-- Generator: Adobe Illustrator 16.0.0, SVG Export Plug-In . SVG Version: 6.00 Build 0)  -->
<!DOCTYPE svg PUBLIC "-//W3C//DTD SVG 1.1//EN" "http://www.w3.org/Graphics/SVG/1.1/DTD/svg11.dtd">
<svg version="1.1" id="Capa_1" xmlns="http://www.w3.org/2000/svg" xmlns:xlink="http://www.w3.org/1999/xlink" x="0px" y="0px"
	 width="220px" height="220px" viewBox="0 0 220 220" enable-background="new 0 0 220 220" xml:space="preserve">
<g>
	<g>
		<path d="M130.125,150.971h-51.89c-1.104,0-2-0.896-2-2s0.896-2,2-2h50.34l19.891-77.077c0.228-0.883,1.024-1.5,1.937-1.5h13.309
			c1.104,0,2,0.896,2,2s-0.896,2-2,2h-11.759l-19.891,77.077C131.834,150.354,131.037,150.971,130.125,150.971z"/>
		<path d="M136.832,124.991H73.093c-0.902,0-1.693-0.604-1.93-1.475l-10.14-37.266c-0.164-0.602-0.038-1.245,0.341-1.74
			c0.378-0.495,0.966-0.785,1.589-0.785h83.493c1.104,0,2,0.896,2,2s-0.896,2-2,2H65.57l9.051,33.266h62.211c1.104,0,2,0.896,2,2
			S137.937,124.991,136.832,124.991z"/>
		<path d="M89.253,160.161c-3.375,0-6.12-2.744-6.12-6.117c0-3.375,2.745-6.12,6.12-6.12c3.374,0,6.118,2.745,6.118,6.12
			C95.371,157.417,92.626,160.161,89.253,160.161z M89.253,151.924c-1.169,0-2.12,0.951-2.12,2.12c0,1.167,0.951,2.117,2.12,2.117
			c1.168,0,2.118-0.95,2.118-2.117C91.371,152.875,90.421,151.924,89.253,151.924z"/>
		<path d="M120.065,160.161c-3.374,0-6.119-2.744-6.119-6.117c0-3.375,2.745-6.12,6.119-6.12c3.375,0,6.12,2.745,6.12,6.12
			C126.186,157.417,123.44,160.161,120.065,160.161z M120.065,151.924c-1.168,0-2.119,0.951-2.119,2.12
			c0,1.167,0.951,2.117,2.119,2.117c1.169,0,2.12-0.95,2.12-2.117C122.186,152.875,121.234,151.924,120.065,151.924z"/>
	</g>
	<path d="M110,215.066C52.066,215.066,4.934,167.934,4.934,110S52.066,4.934,110,4.934S215.066,52.066,215.066,110
		S167.934,215.066,110,215.066z M110,8.934C54.271,8.934,8.934,54.271,8.934,110S54.271,211.066,110,211.066
		S211.066,165.729,211.066,110S165.729,8.934,110,8.934z"/>
</g>
</svg>
