<?xml version="1.0" encoding="utf-8"?>
<!-- Generator: Adobe Illustrator 16.0.0, SVG Export Plug-In . SVG Version: 6.00 Build 0)  -->
<!DOCTYPE svg PUBLIC "-//W3C//DTD SVG 1.1//EN" "http://www.w3.org/Graphics/SVG/1.1/DTD/svg11.dtd">
<svg version="1.1" id="Capa_1" xmlns="http://www.w3.org/2000/svg" xmlns:xlink="http://www.w3.org/1999/xlink" x="0px" y="0px"
	 width="220px" height="220px" viewBox="0 0 220 220" enable-background="new 0 0 220 220" xml:space="preserve">
<g>
	<g>
		<path d="M107.289,164.799h-40.41c-1.104,0-2-0.896-2-2V88.808c0-1.104,0.896-2,2-2h40.41c1.104,0,2,0.896,2,2v73.991
			C109.289,163.903,108.394,164.799,107.289,164.799z M68.879,160.799h36.41V90.808h-36.41V160.799z"/>
		<path d="M153.463,164.799h-40.41c-1.104,0-2-0.896-2-2V65.757c0-1.104,0.896-2,2-2h40.41c1.104,0,2,0.896,2,2v97.042
			C155.463,163.903,154.567,164.799,153.463,164.799z M115.053,160.799h36.41V67.757h-36.41V160.799z"/>
		<path d="M82.816,109.096c-1.104,0-2-0.896-2-2v-4.343c0-1.104,0.896-2,2-2s2,0.896,2,2v4.343
			C84.816,108.2,83.921,109.096,82.816,109.096z"/>
		<path d="M91.354,109.096c-1.104,0-2-0.896-2-2v-4.343c0-1.104,0.896-2,2-2s2,0.896,2,2v4.343
			C93.354,108.2,92.458,109.096,91.354,109.096z"/>
		<path d="M82.816,120.39c-1.104,0-2-0.896-2-2v-4.344c0-1.104,0.896-2,2-2s2,0.896,2,2v4.344
			C84.816,119.494,83.921,120.39,82.816,120.39z"/>
		<path d="M91.354,120.39c-1.104,0-2-0.896-2-2v-4.344c0-1.104,0.896-2,2-2s2,0.896,2,2v4.344
			C93.354,119.494,92.458,120.39,91.354,120.39z"/>
		<path d="M82.816,131.683c-1.104,0-2-0.896-2-2v-4.343c0-1.104,0.896-2,2-2s2,0.896,2,2v4.343
			C84.816,130.787,83.921,131.683,82.816,131.683z"/>
		<path d="M91.354,131.683c-1.104,0-2-0.896-2-2v-4.343c0-1.104,0.896-2,2-2s2,0.896,2,2v4.343
			C93.354,130.787,92.458,131.683,91.354,131.683z"/>
		<path d="M82.816,142.977c-1.104,0-2-0.896-2-2v-4.344c0-1.104,0.896-2,2-2s2,0.896,2,2v4.344
			C84.816,142.081,83.921,142.977,82.816,142.977z"/>
		<path d="M91.354,142.977c-1.104,0-2-0.896-2-2v-4.344c0-1.104,0.896-2,2-2s2,0.896,2,2v4.344
			C93.354,142.081,92.458,142.977,91.354,142.977z"/>
		<path d="M82.816,154.27c-1.104,0-2-0.896-2-2v-4.343c0-1.104,0.896-2,2-2s2,0.896,2,2v4.343
			C84.816,153.374,83.921,154.27,82.816,154.27z"/>
		<path d="M91.354,154.27c-1.104,0-2-0.896-2-2v-4.343c0-1.104,0.896-2,2-2s2,0.896,2,2v4.343
			C93.354,153.374,92.458,154.27,91.354,154.27z"/>
		<path d="M128.989,120.39c-1.104,0-2-0.896-2-2v-4.344c0-1.104,0.896-2,2-2s2,0.896,2,2v4.344
			C130.989,119.494,130.094,120.39,128.989,120.39z"/>
		<path d="M137.526,120.39c-1.104,0-2-0.896-2-2v-4.344c0-1.104,0.896-2,2-2s2,0.896,2,2v4.344
			C139.526,119.494,138.631,120.39,137.526,120.39z"/>
		<path d="M128.989,131.683c-1.104,0-2-0.896-2-2v-4.343c0-1.104,0.896-2,2-2s2,0.896,2,2v4.343
			C130.989,130.787,130.094,131.683,128.989,131.683z"/>
		<path d="M137.526,131.683c-1.104,0-2-0.896-2-2v-4.343c0-1.104,0.896-2,2-2s2,0.896,2,2v4.343
			C139.526,130.787,138.631,131.683,137.526,131.683z"/>
		<path d="M128.989,86.509c-1.104,0-2-0.896-2-2v-4.343c0-1.104,0.896-2,2-2s2,0.896,2,2v4.343
			C130.989,85.613,130.094,86.509,128.989,86.509z"/>
		<path d="M137.526,86.509c-1.104,0-2-0.896-2-2v-4.343c0-1.104,0.896-2,2-2s2,0.896,2,2v4.343
			C139.526,85.613,138.631,86.509,137.526,86.509z"/>
		<path d="M128.989,97.803c-1.104,0-2-0.896-2-2v-4.344c0-1.104,0.896-2,2-2s2,0.896,2,2v4.344
			C130.989,96.907,130.094,97.803,128.989,97.803z"/>
		<path d="M137.526,97.803c-1.104,0-2-0.896-2-2v-4.344c0-1.104,0.896-2,2-2s2,0.896,2,2v4.344
			C139.526,96.907,138.631,97.803,137.526,97.803z"/>
		<path d="M128.989,109.096c-1.104,0-2-0.896-2-2v-4.343c0-1.104,0.896-2,2-2s2,0.896,2,2v4.343
			C130.989,108.2,130.094,109.096,128.989,109.096z"/>
		<path d="M137.526,109.096c-1.104,0-2-0.896-2-2v-4.343c0-1.104,0.896-2,2-2s2,0.896,2,2v4.343
			C139.526,108.2,138.631,109.096,137.526,109.096z"/>
		<path d="M128.989,142.977c-1.104,0-2-0.896-2-2v-4.344c0-1.104,0.896-2,2-2s2,0.896,2,2v4.344
			C130.989,142.081,130.094,142.977,128.989,142.977z"/>
		<path d="M137.526,142.977c-1.104,0-2-0.896-2-2v-4.344c0-1.104,0.896-2,2-2s2,0.896,2,2v4.344
			C139.526,142.081,138.631,142.977,137.526,142.977z"/>
		<path d="M128.989,154.27c-1.104,0-2-0.896-2-2v-4.343c0-1.104,0.896-2,2-2s2,0.896,2,2v4.343
			C130.989,153.374,130.094,154.27,128.989,154.27z"/>
		<path d="M137.526,154.27c-1.104,0-2-0.896-2-2v-4.343c0-1.104,0.896-2,2-2s2,0.896,2,2v4.343
			C139.526,153.374,138.631,154.27,137.526,154.27z"/>
	</g>
	<path d="M110,215.066C52.066,215.066,4.934,167.934,4.934,110S52.066,4.934,110,4.934S215.066,52.066,215.066,110
		S167.934,215.066,110,215.066z M110,8.934C54.271,8.934,8.934,54.271,8.934,110S54.271,211.066,110,211.066
		c55.728,0,101.066-45.338,101.066-101.066S165.728,8.934,110,8.934z"/>
</g>
</svg>
