<?xml version="1.0" encoding="utf-8"?>
<!-- Generator: Adobe Illustrator 16.0.0, SVG Export Plug-In . SVG Version: 6.00 Build 0)  -->
<!DOCTYPE svg PUBLIC "-//W3C//DTD SVG 1.1//EN" "http://www.w3.org/Graphics/SVG/1.1/DTD/svg11.dtd">
<svg version="1.1" id="Capa_1" xmlns="http://www.w3.org/2000/svg" xmlns:xlink="http://www.w3.org/1999/xlink" x="0px" y="0px"
	 width="220px" height="220px" viewBox="0 0 220 220" enable-background="new 0 0 220 220" xml:space="preserve">
<g>
	<g>
		<path d="M50.293,148.227H39.389c-2.342,0-4.248-2.027-4.248-4.52v-24.439c0-2.492,1.906-4.521,4.248-4.521h10.904
			c2.342,0,4.248,2.028,4.248,4.521v24.439C54.541,146.199,52.635,148.227,50.293,148.227z M39.389,118.747
			c-0.047,0-0.248,0.174-0.248,0.521v24.439c0,0.347,0.201,0.52,0.248,0.52h10.904c0.047,0,0.248-0.173,0.248-0.52v-24.439
			c0-0.347-0.201-0.521-0.248-0.521H39.389z"/>
		<path d="M52.258,124.48H37.422c-1.104,0-2-0.896-2-2s0.896-2,2-2h14.836c1.104,0,2,0.896,2,2S53.362,124.48,52.258,124.48z"/>
		<path d="M52.528,141.91H37.692c-1.104,0-2-0.896-2-2s0.896-2,2-2h14.836c1.104,0,2,0.896,2,2S53.633,141.91,52.528,141.91z"/>
		<path d="M84.786,148.227H65.098c-3.341,0-6.059-2.718-6.059-6.059v-39.374c0-3.341,2.718-6.06,6.059-6.06h19.688
			c3.341,0,6.06,2.719,6.06,6.06v39.374C90.846,145.509,88.127,148.227,84.786,148.227z M65.098,100.734
			c-1.135,0-2.059,0.924-2.059,2.06v39.374c0,1.135,0.924,2.059,2.059,2.059h19.688c1.136,0,2.06-0.924,2.06-2.059v-39.374
			c0-1.136-0.924-2.06-2.06-2.06H65.098z"/>
		<path d="M88.338,107.229H61.547c-1.104,0-2-0.896-2-2s0.896-2,2-2h26.791c1.104,0,2,0.896,2,2S89.442,107.229,88.338,107.229z"/>
		<path d="M88.338,138.038H61.547c-1.104,0-2-0.896-2-2s0.896-2,2-2h26.791c1.104,0,2,0.896,2,2S89.442,138.038,88.338,138.038z"/>
		<g>
			<path d="M180.718,135.372H102.78c-3.341,0-6.06-2.719-6.06-6.06V81.279c0-3.341,2.718-6.059,6.06-6.059h77.938
				c3.341,0,6.059,2.718,6.059,6.059v48.033C186.776,132.653,184.059,135.372,180.718,135.372z M102.78,79.221
				c-1.136,0-2.06,0.924-2.06,2.059v48.033c0,1.136,0.924,2.06,2.06,2.06h77.938c1.135,0,2.059-0.924,2.059-2.06V81.279
				c0-1.135-0.924-2.059-2.059-2.059H102.78z"/>
			<path d="M184.776,125.225H98.721c-1.104,0-2-0.896-2-2s0.896-2,2-2h86.056c1.104,0,2,0.896,2,2S185.881,125.225,184.776,125.225z
				"/>
			<path d="M155.822,148.227h-28.686c-0.913,0-1.711-0.619-1.938-1.503c-0.227-0.885,0.175-1.812,0.976-2.25l3.562-1.955v-9.146
				c0-1.104,0.896-2,2-2s2,0.896,2,2v10.33c0,0.18-0.024,0.355-0.07,0.524h16.164c-0.045-0.169-0.07-0.345-0.07-0.524v-10.33
				c0-1.104,0.896-2,2-2s2,0.896,2,2v9.219l3.116,1.938c0.759,0.472,1.113,1.389,0.867,2.247
				C157.5,147.635,156.715,148.227,155.822,148.227z"/>
		</g>
		<path d="M75.442,143.121h-1c-1.104,0-2-0.896-2-2s0.896-2,2-2h1c1.104,0,2,0.896,2,2S76.547,143.121,75.442,143.121z"/>
	</g>
	<path d="M110,215.066C52.066,215.066,4.934,167.934,4.934,110S52.066,4.934,110,4.934S215.066,52.066,215.066,110
		S167.934,215.066,110,215.066z M110,8.934C54.271,8.934,8.934,54.271,8.934,110S54.271,211.066,110,211.066
		S211.066,165.729,211.066,110S165.729,8.934,110,8.934z"/>
</g>
</svg>
