<?xml version="1.0" encoding="utf-8"?>
<!-- Generator: Adobe Illustrator 16.0.0, SVG Export Plug-In . SVG Version: 6.00 Build 0)  -->
<!DOCTYPE svg PUBLIC "-//W3C//DTD SVG 1.1//EN" "http://www.w3.org/Graphics/SVG/1.1/DTD/svg11.dtd">
<svg version="1.1" id="Capa_1" xmlns="http://www.w3.org/2000/svg" xmlns:xlink="http://www.w3.org/1999/xlink" x="0px" y="0px"
	 width="50.588px" height="50.588px" viewBox="0 0 50.588 50.588" enable-background="new 0 0 50.588 50.588" xml:space="preserve">
<rect x="1" y="0.5" fill="#707173" width="48.588" height="49.088"/>
<path fill="#FFFFFF" d="M33.779,29.274c-0.128,0-0.256-0.049-0.354-0.146l-8.133-8.132l-8.131,8.132
	c-0.195,0.195-0.512,0.195-0.707,0s-0.195-0.512,0-0.707l8.484-8.485c0.188-0.188,0.52-0.188,0.707,0l8.486,8.485
	c0.195,0.195,0.195,0.512,0,0.707C34.035,29.226,33.907,29.274,33.779,29.274z"/>
<path fill="#FFFFFF" d="M50.088,50.588H0.5c-0.276,0-0.5-0.224-0.5-0.5V0.5C0,0.224,0.224,0,0.5,0h49.588c0.276,0,0.5,0.224,0.5,0.5
	v49.588C50.588,50.364,50.364,50.588,50.088,50.588z M1,49.588h48.588V1H1V49.588z"/>
</svg>
