<?xml version="1.0" encoding="utf-8"?>
<!-- Generator: Adobe Illustrator 16.0.0, SVG Export Plug-In . SVG Version: 6.00 Build 0)  -->
<!DOCTYPE svg PUBLIC "-//W3C//DTD SVG 1.1//EN" "http://www.w3.org/Graphics/SVG/1.1/DTD/svg11.dtd">
<svg version="1.1" id="Capa_1" xmlns="http://www.w3.org/2000/svg" xmlns:xlink="http://www.w3.org/1999/xlink" x="0px" y="0px"
	 width="150px" height="50px" viewBox="0 0 150 50" enable-background="new 0 0 150 50" xml:space="preserve">
<g>
	<path fill="#36B7BF" d="M18.21,7.261C8.413,7.261,0.473,15.203,0.473,25s7.94,17.739,17.737,17.739
		c9.798,0,17.74-7.942,17.74-17.739S28.008,7.261,18.21,7.261z M10.458,15.746c0.623,0,1.127,0.504,1.127,1.129
		c0,0.626-0.504,1.131-1.127,1.131c-0.624,0-1.13-0.505-1.13-1.131C9.328,16.25,9.834,15.746,10.458,15.746z M27.094,29.247
		c0,2.762-2.246,5.007-5.004,5.007c-1.571,0-2.958-0.742-3.876-1.879c-0.918,1.137-2.305,1.879-3.874,1.879
		c-2.759,0-5.004-2.245-5.004-5.007v-8.075c0-0.623,0.504-1.127,1.127-1.127c0.624,0,1.131,0.504,1.131,1.127v8.075
		c0,1.514,1.232,2.747,2.746,2.747s2.745-1.233,2.745-2.747v-8.006c0-0.157,0.031-0.306,0.088-0.439
		c0.172-0.406,0.573-0.69,1.04-0.69h0.001l0,0c0.468,0,0.868,0.284,1.04,0.69c0.057,0.134,0.088,0.282,0.088,0.439v8.006
		c0,1.514,1.233,2.747,2.748,2.747c1.513,0,2.746-1.233,2.746-2.747v-8.006c0-0.625,0.505-1.13,1.13-1.13
		c0.623,0,1.128,0.505,1.128,1.13V29.247z"/>
	<g>
		<g>
			<path fill="#36B7BF" d="M61.439,36.932c-0.478,0-0.866-0.389-0.866-0.865v-13.46c0-0.479,0.389-0.868,0.866-0.868
				c0.482,0,0.869,0.389,0.869,0.868v13.46C62.309,36.543,61.922,36.932,61.439,36.932z"/>
			<path fill="#36B7BF" d="M42.022,32.629c-0.479,0-0.869-0.389-0.869-0.866v-9.168c0-0.479,0.39-0.868,0.869-0.868
				c0.48,0,0.867,0.389,0.867,0.868v9.168C42.89,32.24,42.503,32.629,42.022,32.629z"/>
			<path fill="#36B7BF" d="M135.087,32.626c-0.481,0-0.868-0.386-0.868-0.865V18.302c0-0.479,0.387-0.868,0.868-0.868
				c0.477,0,0.865,0.39,0.865,0.868v13.459C135.952,32.24,135.563,32.626,135.087,32.626z"/>
			<path fill="#36B7BF" d="M88.283,32.624c-0.63,0-2.105,0-3.84-9.864c-0.08-0.473,0.234-0.924,0.709-1.005
				c0.469-0.085,0.918,0.231,1.002,0.702c0.56,3.191,1.479,6.854,2.129,8.114c0.646-1.261,1.558-4.923,2.114-8.11
				c0.082-0.475,0.531-0.791,1.004-0.706c0.472,0.081,0.787,0.529,0.706,1.002C90.388,32.624,88.911,32.624,88.283,32.624z"/>
			<path fill="#36B7BF" d="M140.977,32.624c-0.188,0-0.375-0.061-0.529-0.181l-5.894-4.568c-0.21-0.162-0.333-0.412-0.335-0.676
				c-0.002-0.265,0.113-0.517,0.319-0.686l5.893-4.782c0.37-0.303,0.917-0.245,1.218,0.128c0.306,0.37,0.248,0.919-0.122,1.22
				l-5.044,4.094l5.025,3.898c0.382,0.293,0.449,0.838,0.154,1.218C141.491,32.509,141.234,32.624,140.977,32.624z"/>
			<path fill="#36B7BF" d="M41.163,19.251c0-0.478,0.386-0.861,0.859-0.861c0.475,0,0.857,0.384,0.857,0.861
				c0,0.474-0.383,0.858-0.857,0.858C41.549,20.109,41.163,19.725,41.163,19.251"/>
			<path fill="#36B7BF" d="M46.223,32.629c-0.482,0-0.868-0.389-0.868-0.868V25.59c0-2.124,1.728-3.852,3.855-3.852
				c2.122,0,3.853,1.728,3.853,3.852v6.062c0,0.484-0.391,0.87-0.868,0.87c-0.479,0-0.87-0.386-0.87-0.87V25.59
				c0-1.166-0.947-2.114-2.114-2.114c-1.172,0-2.121,0.948-2.121,2.114v6.171C47.089,32.24,46.7,32.629,46.223,32.629z"/>
			<path fill="#36B7BF" d="M52.139,32.629c-0.48,0-0.867-0.389-0.867-0.868V25.59c0-2.124,1.726-3.852,3.854-3.852
				c2.126,0,3.854,1.728,3.854,3.852v6.062c0,0.484-0.387,0.87-0.865,0.87c-0.482,0-0.87-0.386-0.87-0.87V25.59
				c0-1.166-0.949-2.114-2.118-2.114c-1.17,0-2.119,0.948-2.119,2.114v6.171C53.006,32.24,52.617,32.629,52.139,32.629z"/>
			<path fill="#36B7BF" d="M112.747,32.626c-2.126,0-3.854-1.729-3.854-3.852v-6.066c0-0.479,0.389-0.867,0.87-0.867
				c0.477,0,0.865,0.389,0.865,0.867v6.066c0,1.167,0.951,2.116,2.119,2.116s2.119-0.949,2.119-2.116v-6.168
				c0-0.483,0.389-0.872,0.868-0.872c0.479,0,0.867,0.389,0.867,0.872v6.168C116.602,30.897,114.871,32.626,112.747,32.626z"/>
			<path fill="#36B7BF" d="M106.832,32.626c-2.125,0-3.855-1.729-3.855-3.852v-6.066c0-0.479,0.389-0.867,0.868-0.867
				c0.476,0,0.867,0.389,0.867,0.867v6.066c0,1.167,0.952,2.116,2.12,2.116c1.169,0,2.118-0.949,2.118-2.116v-6.168
				c0-0.483,0.389-0.872,0.865-0.872c0.479,0,0.869,0.389,0.869,0.872v6.168C110.685,30.897,108.954,32.626,106.832,32.626z"/>
			<path fill="#36B7BF" d="M61.439,28.104c-0.478,0-0.866-0.392-0.866-0.868V25.59c0-2.124,1.729-3.852,3.854-3.852
				c2.126,0,3.855,1.728,3.855,3.852v1.539c0,0.479-0.391,0.868-0.87,0.868c-0.479,0-0.867-0.389-0.867-0.868V25.59
				c0-1.166-0.951-2.114-2.118-2.114c-1.168,0-2.119,0.948-2.119,2.114v1.646C62.309,27.713,61.922,28.104,61.439,28.104z"/>
			<path fill="#36B7BF" d="M64.428,32.626c-2.125,0-3.854-1.729-3.854-3.852v-1.538c0-0.479,0.389-0.868,0.866-0.868
				c0.482,0,0.869,0.389,0.869,0.868v1.538c0,1.167,0.951,2.116,2.119,2.116c1.167,0,2.118-0.949,2.118-2.116v-1.646
				c0-0.479,0.389-0.865,0.867-0.865c0.479,0,0.87,0.387,0.87,0.865v1.646C68.283,30.897,66.552,32.626,64.428,32.626z"/>
			<path fill="#36B7BF" d="M76.352,28.104c-0.479,0-0.869-0.392-0.869-0.868V25.59c0-2.124,1.73-3.852,3.857-3.852
				c2.122,0,3.854,1.728,3.854,3.852v1.539c0,0.479-0.389,0.868-0.867,0.868c-0.482,0-0.871-0.389-0.871-0.868V25.59
				c0-1.166-0.948-2.114-2.115-2.114c-1.169,0-2.12,0.948-2.12,2.114v1.646C77.22,27.713,76.831,28.104,76.352,28.104z"/>
			<path fill="#36B7BF" d="M79.34,32.626c-2.127,0-3.857-1.729-3.857-3.852v-1.538c0-0.479,0.39-0.868,0.869-0.868
				s0.868,0.389,0.868,0.868v1.538c0,1.167,0.951,2.116,2.12,2.116c1.167,0,2.115-0.949,2.115-2.116v-1.646
				c0-0.479,0.389-0.865,0.871-0.865c0.479,0,0.867,0.387,0.867,0.865v1.646C83.193,30.897,81.462,32.626,79.34,32.626z"/>
			<path fill="#36B7BF" d="M119.153,28.104c-0.481,0-0.871-0.392-0.871-0.868V25.59c0-2.124,1.733-3.852,3.854-3.852
				c2.127,0,3.856,1.728,3.856,3.852v1.539c0,0.479-0.39,0.868-0.869,0.868c-0.479,0-0.868-0.389-0.868-0.868V25.59
				c0-1.166-0.95-2.114-2.119-2.114c-1.167,0-2.118,0.948-2.118,2.114v1.646C120.019,27.713,119.63,28.104,119.153,28.104z"/>
			<path fill="#36B7BF" d="M122.137,32.626c-2.121,0-3.854-1.729-3.854-3.852v-1.538c0-0.479,0.39-0.868,0.871-0.868
				c0.477,0,0.865,0.389,0.865,0.868v1.538c0,1.167,0.951,2.116,2.118,2.116c1.169,0,2.119-0.949,2.119-2.116v-1.646
				c0-0.479,0.39-0.865,0.868-0.865c0.479,0,0.869,0.387,0.869,0.865v1.646C125.993,30.897,124.264,32.626,122.137,32.626z"/>
			<path fill="#36B7BF" d="M94.425,28.104c-0.479,0-0.869-0.392-0.869-0.868V25.59c0-2.124,1.729-3.852,3.854-3.852
				c2.124,0,3.856,1.728,3.856,3.852v1.539c0,0.479-0.392,0.868-0.868,0.868c-0.482,0-0.871-0.389-0.871-0.868V25.59
				c0-1.166-0.948-2.114-2.117-2.114c-1.166,0-2.118,0.948-2.118,2.114v1.646C95.292,27.713,94.903,28.104,94.425,28.104z"/>
			<path fill="#36B7BF" d="M97.41,32.626c-2.125,0-3.854-1.729-3.854-3.852v-1.538c0-0.479,0.39-0.868,0.869-0.868
				c0.479,0,0.867,0.389,0.867,0.868v1.538c0,1.167,0.952,2.116,2.118,2.116c0.479,0,0.867,0.392,0.867,0.87
				C98.277,32.24,97.889,32.626,97.41,32.626z"/>
			<path fill="#36B7BF" d="M70.997,32.626c-0.477,0-0.867-0.386-0.867-0.865v-9.154c0-0.479,0.391-0.868,0.867-0.868
				c0.481,0,0.871,0.389,0.871,0.868v9.154C71.868,32.24,71.479,32.626,70.997,32.626z"/>
			<path fill="#36B7BF" d="M70.997,28.104c-0.477,0-0.867-0.392-0.867-0.868V25.59c0-2.124,1.73-3.852,3.856-3.852
				c0.477,0,0.866,0.389,0.866,0.868c0,0.478-0.39,0.869-0.866,0.869c-1.169,0-2.118,0.948-2.118,2.114v1.646
				C71.868,27.713,71.479,28.104,70.997,28.104z"/>
			<path fill="#36B7BF" d="M128.613,32.626c-0.479,0-0.869-0.386-0.869-0.865v-9.154c0-0.479,0.39-0.868,0.869-0.868
				c0.48,0,0.867,0.389,0.867,0.868v9.154C129.48,32.24,129.094,32.626,128.613,32.626z"/>
			<path fill="#36B7BF" d="M128.613,28.104c-0.479,0-0.869-0.392-0.869-0.868V25.59c0-2.124,1.729-3.852,3.856-3.852
				c0.479,0,0.866,0.389,0.866,0.868c0,0.478-0.387,0.869-0.866,0.869c-1.171,0-2.12,0.948-2.12,2.114v1.646
				C129.48,27.713,129.094,28.104,128.613,28.104z"/>
			<path fill="#36B7BF" d="M100.398,28.051h-5.252c-0.482,0-0.871-0.389-0.871-0.868c0-0.479,0.389-0.868,0.871-0.868h5.252
				c0.477,0,0.868,0.39,0.868,0.868C101.267,27.662,100.875,28.051,100.398,28.051z"/>
		</g>
		<path fill="#36B7BF" d="M146.233,32.641c-1.817,0-3.293-1.479-3.293-3.294c0-0.479,0.389-0.865,0.867-0.865
			c0.479,0,0.866,0.387,0.866,0.865c0,0.858,0.699,1.561,1.56,1.561c0.856,0,1.559-0.702,1.559-1.561s-0.702-1.556-1.559-1.556
			c-0.479,0-0.87-0.389-0.87-0.868c0-0.479,0.392-0.869,0.87-0.869c1.814,0,3.294,1.48,3.294,3.293
			C149.527,31.161,148.048,32.641,146.233,32.641z"/>
		<path fill="#36B7BF" d="M146.233,27.791c-1.673,0-3.034-1.36-3.034-3.034c0-1.673,1.361-3.034,3.034-3.034
			c1.671,0,3.032,1.361,3.032,3.034c0,0.479-0.389,0.868-0.865,0.868c-0.481,0-0.87-0.389-0.87-0.868
			c0-0.715-0.581-1.298-1.297-1.298c-0.717,0-1.298,0.583-1.298,1.298c0,0.716,0.581,1.297,1.298,1.297
			c0.479,0,0.868,0.391,0.868,0.869C147.102,27.402,146.713,27.791,146.233,27.791z"/>
	</g>
</g>
</svg>
